<?xml version="1.0" encoding="utf-8"?>
<!-- Generator: Adobe Illustrator 19.0.0, SVG Export Plug-In . SVG Version: 6.00 Build 0)  -->
<svg version="1.1" xmlns="http://www.w3.org/2000/svg" xmlns:xlink="http://www.w3.org/1999/xlink" x="0px" y="0px"
	 viewBox="0 0 225.4 424.9" style="enable-background:new 0 0 225.4 424.9;" xml:space="preserve">
<style type="text/css">
	.st0{fill:#ED1C24;}
	.st1{fill:#6D6E71;}
	.st2{fill:#FFFFFF;stroke:#000000;stroke-width:10;stroke-miterlimit:10;}
</style>
<g id="Layer_6">
	<path id="XMLID_10_" class="st0" d="M28.5,244.9h73.4c6.6,0,12,5.4,12,12v35.5c0,6.6-5.4,12-12,12H28.5c-6.6,0-12-5.4-12-12v-35.5
		C16.5,250.3,21.9,244.9,28.5,244.9z"/>
</g>
<g id="Layer_4">
	<path id="XMLID_3_" class="st0" d="M28.5,283.9h117.4c6.6,0,12,5.4,12,12v17c0,6.6-5.4,12-12,12H28.5c-6.6,0-12-5.4-12-12v-17
		C16.5,289.3,21.9,283.9,28.5,283.9z"/>
</g>
<g id="Layer_5">
	<path id="XMLID_9_" class="st1" d="M17.9,304.4h153.7c6.6,0,12,5.4,12,12v30.5c0,6.6-5.4,12-12,12H17.9c-6.6,0-12-5.4-12-12v-30.5
		C5.9,309.8,11.3,304.4,17.9,304.4z"/>
</g>
<g id="Layer_7">
	<path id="XMLID_11_" class="st1" d="M13.1,0L13.1,0c3.6,0,6.5,2.9,6.5,6.5l-0.8,383c0,3.6-2.9,6.5-6.5,6.5h0
		c-3.6,0-6.5-2.9-6.5-6.5l0.8-383C6.5,2.9,9.5,0,13.1,0z"/>
</g>
<g id="Layer_3">
	<path id="XMLID_7_" class="st1" d="M203.9,394.9h-186c-6.6,0-12-5.4-12-12v-25c0-6.6,5.4-12,12-12h186c6.6,0,12,5.4,12,12v25
		C215.9,389.5,210.5,394.9,203.9,394.9z"/>
</g>
<g id="Layer_2">
	<circle id="XMLID_1_" class="st2" cx="35.5" cy="389.4" r="30.5"/>
	<circle id="XMLID_4_" class="st2" cx="198.7" cy="395.2" r="21.8"/>
	<ellipse id="XMLID_5_" cx="36.3" cy="390.6" rx="9.1" ry="8.7"/>
	<ellipse id="XMLID_6_" cx="198.8" cy="396" rx="6.5" ry="6.2"/>
</g>
</svg>
