<?xml version="1.0" encoding="utf-8"?>
<!-- Generator: Adobe Illustrator 19.0.0, SVG Export Plug-In . SVG Version: 6.00 Build 0)  -->
<svg version="1.1" xmlns="http://www.w3.org/2000/svg" xmlns:xlink="http://www.w3.org/1999/xlink" x="0px" y="0px"
	 viewBox="0 0 392.1 342.8" style="enable-background:new 0 0 392.1 342.8;" xml:space="preserve">
<style type="text/css">
	.st0{fill:#ED1C24;}
	.st1{fill:#6D6E71;}
	.st2{fill:#FFFFFF;stroke:#000000;stroke-width:10;stroke-miterlimit:10;}
</style>
<g id="Layer_6">
	<path id="XMLID_10_" class="st0" d="M198.2,162.8h73.4c6.6,0,12,5.4,12,12v35.5c0,6.6-5.4,12-12,12h-73.4c-6.6,0-12-5.4-12-12
		v-35.5C186.2,168.2,191.6,162.8,198.2,162.8z"/>
</g>
<g id="Layer_4">
	<path id="XMLID_8_" class="st0" d="M198.2,201.8h117.4c6.6,0,12,5.4,12,12v17c0,6.6-5.4,12-12,12H198.2c-6.6,0-12-5.4-12-12v-17
		C186.2,207.2,191.6,201.8,198.2,201.8z"/>
</g>
<g id="Layer_5">
	<path id="XMLID_9_" class="st1" d="M184.6,222.3h153.7c6.6,0,12,5.4,12,12v30.5c0,6.6-5.4,12-12,12H184.6c-6.6,0-12-5.4-12-12
		v-30.5C172.6,227.7,178,222.3,184.6,222.3z"/>
</g>
<g id="Layer_7">
	<path id="XMLID_11_" class="st1" d="M2.4,1.5L2.4,1.5c2.8-2.3,6.9-1.9,9.2,0.9l243.9,295.3c2.3,2.8,1.9,6.9-0.9,9.2h0
		c-2.8,2.3-6.9,1.9-9.2-0.9L1.5,10.6C-0.8,7.9-0.4,3.8,2.4,1.5z"/>
</g>
<g id="Layer_3">
	<path id="XMLID_7_" class="st1" d="M370.6,312.8h-186c-6.6,0-12-5.4-12-12v-25c0-6.6,5.4-12,12-12h186c6.6,0,12,5.4,12,12v25
		C382.6,307.4,377.2,312.8,370.6,312.8z"/>
</g>
<g id="Layer_2">
	<circle id="XMLID_1_" class="st2" cx="202.2" cy="307.3" r="30.5"/>
	<circle id="XMLID_4_" class="st2" cx="365.3" cy="313.1" r="21.8"/>
	<ellipse id="XMLID_5_" cx="203" cy="308.5" rx="9.1" ry="8.7"/>
	<ellipse id="XMLID_6_" cx="365.5" cy="313.9" rx="6.5" ry="6.2"/>
</g>
</svg>
