<?xml version="1.0" encoding="utf-8"?>
<!-- Generator: Adobe Illustrator 19.0.0, SVG Export Plug-In . SVG Version: 6.00 Build 0)  -->
<svg version="1.1" id="Layer_1" xmlns="http://www.w3.org/2000/svg" xmlns:xlink="http://www.w3.org/1999/xlink" x="0px" y="0px"
	 viewBox="0 0 295 372.3" style="enable-background:new 0 0 295 372.3;" xml:space="preserve">
<style type="text/css">
	.st0{fill:#754C29;}
	.st1{fill:#808285;}
</style>
<path id="XMLID_27_" class="st0" d="M2.6,371L2.6,371c2.8,2.2,6.9,1.6,9.1-1.2L235.1,76.1c2.2-2.8,1.6-6.9-1.2-9.1l0,0
	c-2.8-2.2-6.9-1.6-9.1,1.2L1.3,361.9C-0.8,364.7-0.3,368.8,2.6,371z"/>
<path id="XMLID_32_" class="st1" d="M284.1,78c16.4-24.8,14.2-55.7-5.6-70.3C257.9-7.6,226,0.5,207.2,25.8c-0.9,1.2-1.7,2.4-2.5,3.6
	l-39.9,53.8l74.6,55.2l42.4-57.2c0,0,0,0,0-0.1c0,0,0,0,0-0.1L284.1,78L284.1,78z"/>
</svg>
